<svg fill="none" xmlns="http://www.w3.org/2000/svg" viewBox="0 0 1969 2574"><path d="M830.957 11.652C411.006 75.405 80.987 410.04 13.751 824.63 6.054 872.072 1.484 922.116.04 974.763c-.984 36.397 15.94 64.867 49.329 78.967 16.311 6.87 32.383 7.79 48.213 2.76 35.488-11.28 53.921-38.44 54.512-74.972 3.629-222.871 80.858-414.151 231.688-573.839C517.928 265.613 700.091 178.38 894.258 155.686c30.612-3.586 67.084-5.05 109.412-4.395 209.45 3.214 409.2 89.595 557.38 232.12 350.16 336.932 339.92 896.409-23.22 1221.469-105.52 94.45-232.37 160.69-380.53 198.73-47.1 12.11-91.22 19.77-132.37 22.96-26.985 2.1-47.298 4.72-60.942 7.87-61.334 14.23-74.125 99.83-21.91 135.11 16.793 11.33 36.582 15.61 59.362 12.86 55.1-6.74 85.83-10.58 92.17-11.55 503.13-78.51 876.31-480.7 875.39-997.803-.09-42.195-3.59-86.096-10.5-131.703C1876.05 297.49 1377.58-71.318 830.957 11.652Z" fill="#DA0000"/><path d="M698.953 368.286C457.712 483.522 311.699 710.07 305.686 977.951c-.849 37.279 16.798 65.859 52.157 78.419 17.168 6.1 34.335 5.47 51.503-1.9 38.758-16.61 47.386-44.73 48.366-85.413 3.181-130.148 49.782-244.446 139.804-342.896 183.79-201.042 495.164-227.202 710.524-58.338 117.45 92.084 193.07 228.576 202.68 379.978 8.8 137.999-31.44 258.009-120.72 360.029-100.85 115.24-248.11 185.09-397.976 210.2-44.4 7.46-66.666 11.21-66.797 11.25-147.32 34.6-274.051 116.74-308.496 273.9-45.62 208.3 78.039 403.72 282.287 454.27 30.85 7.65 67.124 12.75 98.562 8.63 21.44-2.83 38.43-14.58 50.98-35.25 30.65-50.42-3.46-112.62-62.81-114.65-96.078-3.22-164.967-47.26-206.666-132.1-16.732-34.1-23.508-71.77-20.327-113.02 6.275-81.88 50.392-137.21 124.509-169.71 29.064-12.69 57.778-21.3 86.144-25.84 44.4-7.1 87.02-15.78 127.84-26.02 287.98-72.01 531.05-291.5 562.42-596.59 13.59-132.153-10.54-258.659-72.42-379.52-72.9-142.53-185.18-247.127-336.86-313.793-171.63-75.472-384.64-70.959-551.437 8.699Z" fill="#DA0000"/><path d="M507.219 2116.29c-22.603-47.46-37.227-95.36-43.872-143.7-10.099-73.53-7.607-144.74 7.476-213.63 48.462-221.45 229.525-341.72 442.131-383.12a5234.537 5234.537 0 0 1 102.826-18.96c123.36-21.39 242.05-93.11 304.81-202.42 56.2-97.96 57.05-221.447 12.53-323.476-96.67-221.248-379.048-298.476-572.833-151.173-92.291 70.119-142.94 165.061-151.946 284.828-2.842 37.621 8.635 64.891 34.429 81.821 38.954 25.59 88.728 10.63 109.516-30.58 10.493-20.731 6.034-47.436 10.428-70.335 13.159-68.457 49.205-120.816 108.139-157.079 108.139-66.532 248.737-26.967 311.107 80.049 39.08 67.057 44 143.955 5.83 212.785-42.36 76.31-141.19 120.27-227.16 131.88-140.601 18.9-285.53 65.29-399.112 148.03-145.453 105.85-228.935 251.49-250.445 436.92-20.111 173.08 15.783 329.75 107.68 469.99 115.943 176.95 305.007 283.58 515.711 303.46 20.373 1.92 40.528 2.14 60.463.65 72.993-5.57 91.813-104.72 28.523-141.66-11.89-6.95-27.429-10.32-46.622-10.1-17.575.22-36.156-.92-55.742-3.41-182.046-22.77-335.37-136.02-413.867-300.77Z" fill="#DA0000"/></svg>